<svg id="Layer_1" data-name="Layer 1" xmlns="http://www.w3.org/2000/svg" viewBox="0 0 750 750"><path d="M461.61,427.81q-12.9-5.91-36.23-6.15H336.09v96.7h88.06q23.6,0,36.73-6.4,23.82-11.83,23.83-45.29,0-28.29-23.1-38.86" transform="translate(-25 -25)" style="fill:#3c3c47"/><path d="M462.6,352.64q14.72-9,14.74-31.88,0-25.35-19.48-33.46-16.8-5.69-42.87-5.66H336.08v80h88.16q23.63,0,38.36-9" transform="translate(-25 -25)" style="fill:#3c3c47"/><path d="M400,25C192.9,25,25,192.9,25,400S192.9,775,400,775,775,607.1,775,400,607.1,25,400,25M545.09,529.68a99.91,99.91,0,0,1-25.69,28.53q-17.38,13.31-41,18.22a251.1,251.1,0,0,1-51.25,4.92H263.75V218.65H439q66.32,1,94,38.63,16.65,23.13,16.65,55.37,0,33.21-16.8,53.39-9.42,11.32-27.68,20.66,27.77,10.1,41.92,32t14.12,53.15q0,32.23-16.16,57.83" transform="translate(-25 -25)" style="fill:#3c3c47"/></svg>